<svg version="1" xmlns="http://www.w3.org/2000/svg" width="933.333" height="933.333" viewBox="0 0 700.000000 700.000000"><path d="M214.2 34.1c-3.9.8 7.3-9.6-111.2 103-53.7 51-98.1 93.9-98.8 95.3-1.7 3.9-1.5 8.6.7 12.2 1.3 2.1 23 17.2 70.2 48.8 37.6 25.2 69 46.4 69.7 47 .9.9 5.3 36.6 13.7 109.5 13.5 117.2 12.8 113.1 19.2 116 1.6.7 44 18.2 94.3 38.8 50.3 20.6 103 42.2 117 48 22.6 9.3 26 10.4 30 10 3.4-.4 5.1-1.3 7.5-3.9 1.6-1.9 26.6-47.1 55.5-100.6 32.8-60.7 53.1-97.2 54-97.2.8 0 12.3 1.6 25.5 3.6 14.1 2.2 25.2 3.4 26.8 3 6.9-1.7 5.9.5 57.4-127.6 36.4-90.8 48.7-122.5 48.6-125.3-.1-4.4-2.6-8.4-6.9-10.9-2.6-1.5-10.1-1.8-71.4-2.7l-68.5-1.1-110.6-38.2-110.6-38.3-47.9-41.6C252 59 229 39 227.2 37.5c-3.8-3.2-8.4-4.4-13-3.4zm44.5 66.4c21.9 19 40.2 35.1 40.7 35.8.6.9-20.3 27.4-70.9 89.8-39.5 48.6-71.9 88.5-72.1 88.7-.1.2-26.8-17.4-59.4-39.1l-59.1-39.5 48.2-45.9c26.6-25.2 66.8-63.4 89.4-85 22.5-21.5 41.6-39.2 42.2-39.2.7-.1 19.2 15.4 41 34.4zm170.5 87.1c51.9 17.9 94.7 32.9 95.1 33.4.7.6-113.3 186.3-116.2 189.3-.5.5-67.6-23.5-68.8-24.6-.1-.1-1.3-48.1-2.7-106.7-1.4-58.6-2.7-110.4-2.9-115.3-.2-4.8 0-8.7.4-8.7s43.2 14.7 95.1 32.6zm219.5 41.2l12.2.7-42.2 105.1-42.2 105.1-45.5-7.2c-25-3.9-56.6-8.9-70.3-11-13.6-2.1-24.6-4.2-24.5-4.6.2-.4 26.6-43.2 58.8-95.1l58.5-94.4 41.5.4c22.8.2 47 .7 53.7 1zm-393 154.8c43.9 16.3 94.1 35 111.6 41.4 17.5 6.5 32.1 12 32.3 12.3.6.6 3.8 190.6 3.2 191.2-.2.3-36.2-14.2-79.9-32.1-113.8-46.6-125.2-51.3-125.9-52.2-.5-.6-22.2-186.8-22-189.5 0-.4.2-.7.4-.7.3 0 36.4 13.3 80.3 29.6z"/></svg>