<?xml version="1.0" encoding="UTF-8" standalone="no"?>
<svg
   xmlns:dc="http://purl.org/dc/elements/1.1/"
   xmlns:cc="http://creativecommons.org/ns#"
   xmlns:rdf="http://www.w3.org/1999/02/22-rdf-syntax-ns#"
   xmlns:svg="http://www.w3.org/2000/svg"
   xmlns="http://www.w3.org/2000/svg"
   version="1.1"
   id="svg2"
   height="250"
   width="250"
   viewBox="0 0 250 250">
  <defs
     id="defs4">
    <clipPath
       id="clipPath45"
       clipPathUnits="userSpaceOnUse">
      <path
         id="path47"
         d="M 0,1200 H 1600 V 0 H 0 Z" />
    </clipPath>
    <clipPath
       id="clipPath55"
       clipPathUnits="userSpaceOnUse">
      <path
         id="path57"
         d="m 326.667,707.333 h 17 V 687 h -17 z" />
    </clipPath>
    <clipPath
       id="clipPath69"
       clipPathUnits="userSpaceOnUse">
      <path
         id="path71"
         d="M 386.667,703.333 H 420 v -42 h -33.333 z" />
    </clipPath>
    <clipPath
       id="clipPath83"
       clipPathUnits="userSpaceOnUse">
      <path
         id="path85"
         d="m 340,750.333 h 29.333 v -37 H 340 Z" />
    </clipPath>
    <clipPath
       id="clipPath25"
       clipPathUnits="userSpaceOnUse">
      <path
         id="path27"
         d="m 423.5,1206.5 h 776.02 V -18.5 H 423.5 Z" />
    </clipPath>
    <clipPath
       id="clipPath5298"
       clipPathUnits="userSpaceOnUse">
      <rect
         style="color:#000000;display:inline;overflow:visible;visibility:visible;fill:none;stroke:#1982d1;stroke-width:1.88728499;marker:none;enable-background:accumulate"
         id="rect5300"
         width="514.07629"
         height="574.07629"
         x="2029.9619"
         y="181.96185" />
    </clipPath>
  </defs>
  <metadata
     id="metadata7">
    <rdf:RDF>
      <cc:Work
         rdf:about="">
        <dc:format>image/svg+xml</dc:format>
        <dc:type
           rdf:resource="http://purl.org/dc/dcmitype/StillImage" />
        <dc:title></dc:title>
      </cc:Work>
    </rdf:RDF>
  </metadata>
  <g
     transform="translate(370,-732.36218)"
     id="layer1">
    <g
       transform="matrix(2.5465988,0,0,-2.5464698,-609.33649,2170.601)"
       id="g4625"
       style="stroke:none" />
    <g
       transform="matrix(2.5465988,0,0,-2.5464698,-609.33649,2170.601)"
       id="g4635"
       style="stroke:none" />
    <g
       transform="matrix(2.5465988,0,0,-2.5464698,-505.56768,2272.8354)"
       style="stroke:none"
       id="g4750" />
  </g>
  <g
     transform="translate(0,-650)"
     style="display:inline"
     id="layer2" />
  <g
     transform="translate(0,-650)"
     style="display:inline"
     id="layer3">
    <path
       id="path5247"
       style="fill:#ffffff;fill-opacity:1;fill-rule:nonzero;stroke:none;stroke-width:0.85569829"
       d="m 0,730.77096 75.726517,-71.92767 38.364823,33.32571 81.96035,29.83963 54.21488,0.29298 -22.98155,51.27763 -16.21409,47.52498 -16.1829,-3.18648 -39.57064,73.53287 -92.192042,-41.60601 -9.551083,-83.18588 z" />
    <g
       id="g5249"
       style="stroke:none"
       transform="matrix(2.1791203,0,0,-2.1790099,-687.94551,2333.7503)">
      <g
         id="g5251"
         style="stroke:none" />
      <g
         id="g5253"
         style="stroke:none">
        <g
           style="opacity:0.13999903;stroke:none"
           id="g5255"
           clip-path="url(#clipPath55)">
          <path
             id="path5257"
             style="fill:#000000;fill-opacity:1;fill-rule:nonzero;stroke:none"
             d="M 326.667,692.667 341.333,707.333 343.667,687 Z" />
        </g>
      </g>
    </g>
    <path
       d="m 154.6484,892.69919 40.23963,-74.78145 15.75505,2.75863 6.47198,-18.77 32.90236,0.16297 -22.7324,51.40767 -6.53737,29.77835 -42.12893,-2.90463 z"
       style="opacity:0.13999903;fill:#000000;fill-opacity:1;fill-rule:nonzero;stroke:none;stroke-width:0.85569829"
       id="path5259" />
    <path
       d="m 55.073132,764.92249 58.435708,-67.38776 6.11254,74.60748 -10.68389,14.67126 z"
       style="opacity:0.13999903;fill:#000000;fill-opacity:1;fill-rule:nonzero;stroke:none;stroke-width:0.85569829"
       id="path5261" />
    <path
       id="path5273"
       style="opacity:0.13999903;fill:#000000;fill-opacity:1;fill-rule:nonzero;stroke:none;stroke-width:0.85569829"
       d="m 163.55494,806.80649 31.33309,11.11125 -39.57064,73.53287 0.76801,-87.10401 z" />
  </g>
  <g
     transform="translate(0,-650)"
     style="display:inline"
     id="layer4" />
</svg>
